<svg width="62" height="67" viewBox="0 0 62 67" fill="none" xmlns="http://www.w3.org/2000/svg">
<path id="&#38;" d="M41.7858 65.1082L41.9342 65.2686H42.1528H59H60.1597L59.3636 64.4254L45.7435 49.9997L54.1787 41.4596L54.323 41.3136V41.1083V24.7483V23.521L53.4653 24.3989L37.2445 41.0029L29.6543 32.994L31.2166 31.8365C31.217 31.8362 31.2175 31.8359 31.2179 31.8356C37.1456 27.4976 40.1959 22.5563 40.1959 17.0081C40.1959 12.1804 38.4428 8.20136 34.9389 5.11217C31.4995 2.02808 27.1341 0.5 21.8835 0.5C17.0869 0.5 12.849 2.03618 9.19018 5.10258L9.19017 5.10256L9.18707 5.10521C5.55446 8.20034 3.7466 12.362 3.7466 17.5359C3.7466 21.8763 6.00137 26.4483 10.3699 31.2417C10.37 31.2418 10.3701 31.242 10.3702 31.2421L10.8746 31.7982C7.44349 34.3465 4.85498 36.8855 3.1312 39.4197L3.12978 39.4218C1.3686 42.0395 0.5 45.1901 0.5 48.8484C0.5 53.5643 2.28527 57.7054 5.82303 61.2516L5.82298 61.2517L5.82906 61.2576C9.45007 64.7663 14.264 66.5 20.2163 66.5C26.3479 66.5 31.7895 64.1266 36.5249 59.4226L41.7858 65.1082ZM19.0192 40.8086L19.0285 40.8019L19.0375 40.7947L19.1137 40.7335L28.1246 50.423C25.6592 52.885 23.1417 54.0656 20.5673 54.0656C18.763 54.0656 17.2858 53.4688 16.0993 52.2815C14.9575 51.0806 14.3986 49.7085 14.3986 48.1448C14.3986 45.5494 15.8739 43.1016 19.0192 40.8086ZM20.1415 22.8222L20.141 22.8217C18.0666 20.6268 17.1188 18.7228 17.1188 17.0961C17.1188 15.431 17.5866 14.2689 18.4417 13.5126L18.4431 13.5113C19.4008 12.658 20.5388 12.2307 21.8835 12.2307C23.2746 12.2307 24.4333 12.7077 25.3903 13.6671L25.3954 13.6721L25.4006 13.677C26.3525 14.5783 26.8238 15.6778 26.8238 17.0081C26.8238 19.0262 25.7479 20.8855 23.4327 22.5844L21.3335 24.0874L20.1415 22.8222Z" stroke="#0E0E0E"/>
</svg>
